<svg xmlns="http://www.w3.org/2000/svg" viewBox="0 0 511.998 511.998" style="enable-background:new 0 0 511.998 511.998" xml:space="preserve"><path style="fill:#8fc1b7" d="M255.999 384.004a10.66 10.66 0 0 1-7.375-2.958L3.29 146.379c-4.25-4.073-4.406-10.823-.333-15.083a10.646 10.646 0 0 1 15.083-.333l237.958 227.615 237.958-227.615c4.281-4.073 11.021-3.906 15.083.333 4.073 4.26 3.917 11.01-.333 15.083L263.374 381.046a10.657 10.657 0 0 1-7.375 2.958z" fill="#303C42"/><linearGradient id="a" gradientUnits="userSpaceOnUse" x1="-45.683" y1="642.284" x2="-25.885" y2="633.052" gradientTransform="matrix(21.3333 0 0 -21.3333 996.358 13791.64)"><stop offset="0" style="stop-color:#fff;stop-opacity:.2"/><stop offset="1" style="stop-color:#fff;stop-opacity:0"/></linearGradient><path d="M255.999 384.004a10.66 10.66 0 0 1-7.375-2.958L3.29 146.379c-4.25-4.073-4.406-10.823-.333-15.083a10.646 10.646 0 0 1 15.083-.333l237.958 227.615 237.958-227.615c4.281-4.073 11.021-3.906 15.083.333 4.073 4.26 3.917 11.01-.333 15.083L263.374 381.046a10.657 10.657 0 0 1-7.375 2.958z" fill="url(#a)"/></svg>