<!DOCTYPE svg PUBLIC "-//W3C//DTD SVG 1.1//EN" "http://www.w3.org/Graphics/SVG/1.1/DTD/svg11.dtd">
<!-- Uploaded to: SVG Repo, www.svgrepo.com, Transformed by: SVG Repo Mixer Tools -->
<svg version="1.1" id="Icons" xmlns="http://www.w3.org/2000/svg" xmlns:xlink="http://www.w3.org/1999/xlink" viewBox="0 0 32 32" xml:space="preserve" width="800px" height="800px" fill="#bdbbb8" stroke="#bdbbb8">
<g id="SVGRepo_bgCarrier" stroke-width="0"/>
<g id="SVGRepo_tracerCarrier" stroke-linecap="round" stroke-linejoin="round"/>
<g id="SVGRepo_iconCarrier"> <style type="text/css"> .st0{fill:none;stroke:#000000;stroke-width:2;stroke-linecap:round;stroke-linejoin:round;stroke-miterlimit:10;} .st1{fill:none;stroke:#000000;stroke-width:2;} .st2{fill:none;stroke:#000000;stroke-width:2;stroke-miterlimit:10;} </style> <g id="Page-1_3_"> <g id="Whatsapp_1_" transform="translate(1.000000, 1.000000)"> <path id="Stroke-28_1_" class="st0" d="M20.7,19.1c0.3-0.9,0.3-1.6,0.2-1.8c-0.1-0.2-0.3-0.2-0.7-0.4c-0.4-0.2-2.2-1.1-2.5-1.2 c-0.3-0.1-0.7-0.1-0.9,0.3c-0.4,0.5-0.7,1-1,1.3c-0.2,0.2-0.6,0.3-0.9,0.1c-0.4-0.2-1.6-0.6-3-1.8c-1.1-1-1.8-2.2-2.1-2.6 c-0.2-0.4,0-0.6,0.2-0.8c0.2-0.2,0.4-0.4,0.6-0.6c0.2-0.2,0.3-0.3,0.4-0.6c0.1-0.2,0-0.5-0.1-0.7c-0.1-0.2-0.8-2-1.1-2.7 C9.6,7.1,9.4,7.1,9,7.1C8.9,7,8.7,7,8.6,7c-0.5,0-1,0.1-1.3,0.5C6.9,7.9,6,8.8,6,10.6c0,1.8,1.3,3.6,1.5,3.8 c0.2,0.2,2.6,4,6.3,5.6c2.9,1.2,3.8,1.1,4.4,1C19.2,20.7,20.4,20,20.7,19.1L20.7,19.1z"/> </g> </g> <path class="st0" d="M16,1C7.7,1,1,2.9,1,14c0,7.2,2.8,10.5,7,12v4.4c0,0.6,0.7,0.9,1.2,0.5l3.9-3.9C14,27,15,27,16,27 c8.3,0,15-1.9,15-13S24.3,1,16,1z"/> <path id="_Path_2" class="st0" d="M15.5,11.2c1.3,0,2.3,1,2.3,2.3"/> <path id="_Path_3" class="st0" d="M15.5,5c4.7,0,8.5,3.8,8.5,8.5"/> <path id="_Path_4" class="st0" d="M15.5,8.1c3,0,5.4,2.4,5.4,5.4"/> </g>
</svg>