<svg width="800" height="800" viewBox="0 0 32 32" fill="none" xmlns="http://www.w3.org/2000/svg"><path fill-rule="evenodd" clip-rule="evenodd" d="M30 15.379C30 6.207 26.77 2 16 2S2 6.207 2 15.379c0 6.527 1.636 10.54 6.462 12.31v3.088c0 1.137 1.426 1.656 2.164.789l2.49-2.925c.895.078 1.855.116 2.884.116 10.77 0 14-4.207 14-13.379ZM13.711 26.532c.714.056 1.476.084 2.289.084 9.112 0 11.846-3.534 11.846-11.237C27.846 7.674 25.112 4.14 16 4.14S4.154 7.674 4.154 15.379c0 5.445 1.366 8.807 5.384 10.31v4.575c0 .399.5.58.76.276l3.413-4.008Z" fill="#BFC8D0"/><path d="M16 25.855c-.823 0-1.595-.029-2.319-.087l-3.457 4.077a.437.437 0 0 1-.77-.281v-4.652C5.385 23.383 4 19.965 4 14.427 4 6.593 6.77 3 16 3s12 3.593 12 11.427-2.77 11.428-12 11.428Z" fill="#9179EE"/><path fill-rule="evenodd" clip-rule="evenodd" d="M30 14.379C30 5.207 26.77 1 16 1S2 5.207 2 14.379c0 6.527 1.636 10.54 6.462 12.31v3.088c0 1.137 1.426 1.656 2.164.789l2.49-2.925c.895.078 1.855.116 2.884.116 10.77 0 14-4.207 14-13.379ZM13.711 25.532c.714.056 1.476.084 2.289.084 9.112 0 11.846-3.534 11.846-11.237C27.846 6.674 25.112 3.14 16 3.14S4.154 6.674 4.154 14.379c0 5.445 1.366 8.807 5.384 10.31v4.575c0 .399.5.58.76.276l3.413-4.008Z" fill="#fff"/><path d="m11.543 12.134-.04.023-.036.03a1.362 1.362 0 0 0-.328 1.633c.302.646.977 1.967 2.162 2.963 1.158.973 2.396 1.496 3.208 1.668l.051.01h.047l.015.003c.02.002.043.006.08.013l.085-.493-.086.493.02.003c.25.044.85.15 1.352-.35.322-.322.617-.657.744-.807a.776.776 0 0 1 .746-.126c.695.235 1.52.765 1.92 1.034.31.208 1.01.71 1.325.937h0c.026.02.088.081.121.167.027.07.041.164-.023.3-.118.255-.48.739-.968 1.163-.498.431-1.016.702-1.43.702h-.005a2.557 2.557 0 0 1-.224-.043 9.107 9.107 0 0 1-.612-.164 18.71 18.71 0 0 1-1.964-.726c-1.566-.673-3.536-1.74-5.381-3.31-1.16-.988-2.256-2.353-3.108-3.632-.86-1.29-1.435-2.432-1.592-2.96l-.01-.036-.017-.035a1.173 1.173 0 0 1-.095-.458.795.795 0 0 1 .175-.53c.42-.503.864-.997 1.845-1.472a.957.957 0 0 1 .376-.086c.144-.002.22.034.25.06.375.33.956.91 1.348 1.407a26.297 26.297 0 0 1 .912 1.238 4.39 4.39 0 0 1 .106.167c.002.006.01.03.017.074a.862.862 0 0 1 .006.195.504.504 0 0 1-.146.342c-.293.269-.69.517-.846.603Zm4.734-5.618s0 0 0 0a.065.065 0 0 1 .046-.016c3.991 0 7.175 3.038 7.177 6.723l-.003.004a.066.066 0 0 1-.045.015.066.066 0 0 1-.046-.015.039.039 0 0 1-.003-.004c-.001-3.724-3.2-6.69-7.08-6.69a.065.065 0 0 1-.046-.017Zm0 4.13s0 0 0 0v-.002a.065.065 0 0 1 .046-.015c1.569 0 2.788 1.19 2.79 2.594l-.003.004a.065.065 0 0 1-.046.015.066.066 0 0 1-.045-.015.039.039 0 0 1-.003-.004c-.001-1.443-1.236-2.562-2.693-2.562a.065.065 0 0 1-.046-.015Zm0-2.065s0 0 0 0V8.58a.065.065 0 0 1 .046-.015c2.78 0 4.982 2.113 4.983 4.658l-.003.004a.066.066 0 0 1-.045.015.065.065 0 0 1-.045-.015.028.028 0 0 1-.003-.004c-.002-2.583-2.218-4.626-4.887-4.626a.065.065 0 0 1-.046-.015Z" fill="#fff" stroke="#fff" stroke-linecap="round"/></svg>